<svg xmlns="http://www.w3.org/2000/svg" width="17.99" height="17.99" viewBox="0 0 17.99 17.99">
  <defs>
    <style>
      .a {
        fill: #fff;
      }
    </style>
  </defs>
  <title>fly</title>
  <path class="a" d="M18,.75,15.41,16.17a.65.65,0,0,1-.32.45.66.66,0,0,1-.31.08.7.7,0,0,1-.24,0L10,14.8l-2.43,3a.62.62,0,0,1-.49.23.57.57,0,0,1-.22,0,.64.64,0,0,1-.42-.6v-3.5L15.1,3.21,4.37,12.5l-4-1.63a.64.64,0,0,1-.4-.55.65.65,0,0,1,.32-.59L17,.09A.62.62,0,0,1,17.35,0a.64.64,0,0,1,.36.11A.65.65,0,0,1,18,.75Z"/>
</svg>
